HIERARCHY
ROOT Hips
{
  OFFSET -27.497 91.921 -101.422
  CHANNELS 6 Xposition Yposition Zposition Zrotation Xrotation Yrotation
  JOINT LeftUpLeg
  {
    OFFSET 9.63379 -0.250344 0
    CHANNELS 6 Xposition Yposition Zposition Zrotation Xrotation Yrotation
    JOINT LeftLeg
    {
      OFFSET 0 -40.4779 -1.71313
      CHANNELS 6 Xposition Yposition Zposition Zrotation Xrotation Yrotation
      JOINT LeftFoot
      {
        OFFSET 0.0126047 -40.4416 -0.864524
        CHANNELS 6 Xposition Yposition Zposition Zrotation Xrotation Yrotation
        JOINT LeftToeBase
        {
          OFFSET -0.183287 -12.1867 8.28226
          CHANNELS 6 Xposition Yposition Zposition Zrotation Xrotation Yrotation
          End Site
          {
            OFFSET 0 0 9.15615
          }
        }
      }
    }
  }
}
MOTION
Frames:	28
Frame Time:	0.00833333
-27.3803 91.9683 -102.196 1.33818 1.61702 6.00982 9.63379 -0.250344 -7.15256e-007 1.02526 -2.79896 9.21696 0 -40.4779 -1.71313 1.13839 3.76768 -0.0601936 0.0126047 -40.4416 -0.864524 0.128648 -0.725104 -0.0021532 -0.183287 -12.1867 8.28226 1.11875e-011 -6.27086e-012 6.25742e-011 
-27.3802 91.9677 -102.196 1.33834 1.61862 5.99402 9.63379 -0.250344 -7.15256e-007 1.02626 -2.80034 9.21697 0 -40.4779 -1.71313 1.13563 3.77045 -0.0601938 0.0126047 -40.4416 -0.864524 0.128648 -0.723932 -0.0021532 -0.183287 -12.1867 8.28226 1.11875e-011 -6.27086e-012 6.25742e-011 
-27.3802 91.9673 -102.197 1.33795 1.61967 5.97834 9.63379 -0.250344 -7.15256e-007 1.0276 -2.80209 9.21698 0 -40.4779 -1.71313 1.13382 3.77499 -0.0601941 0.0126047 -40.4416 -0.864524 0.128648 -0.723386 -0.0021532 -0.183287 -12.1867 8.28226 1.11875e-011 -6.27086e-012 6.25742e-011 
-27.3807 91.967 -102.196 1.33614 1.61934 5.96299 9.63379 -0.250344 -7.15256e-007 1.02976 -2.80479 9.21701 0 -40.4779 -1.71313 1.13437 3.78397 -0.0601947 0.0126047 -40.4416 -0.864524 0.128648 -0.724404 -0.0021532 -0.183287 -12.1867 8.28226 1.11875e-011 -6.27086e-012 6.25742e-011 
-27.3818 91.9672 -102.195 1.33203 1.61741 5.94745 9.63379 -0.250344 -7.15256e-007 1.03335 -2.80909 9.21551 0 -40.4779 -1.71313 1.13823 3.79953 -0.0601958 0.0126047 -40.4416 -0.864524 0.128648 -0.727844 -0.0021532 -0.183287 -12.1867 8.28226 1.11875e-011 -6.27086e-012 6.25742e-011 
-27.3834 91.9676 -102.194 1.32628 1.61432 5.93179 9.63379 -0.250344 -7.15256e-007 1.03801 -2.81451 9.21416 0 -40.4779 -1.71313 1.14444 3.81978 -0.0601972 0.0126047 -40.4416 -0.864524 0.128648 -0.733004 -0.00215321 -0.183287 -12.1867 8.28226 1.11875e-011 -6.27086e-012 6.25742e-011 
-27.385 91.9682 -102.192 1.3204 1.61023 5.91713 9.63379 -0.250344 -7.15256e-007 1.04251 -2.81996 9.21253 0 -40.4779 -1.71313 1.15161 3.8413 -0.0601987 0.0126047 -40.4416 -0.864524 0.128648 -0.738479 -0.00215321 -0.183287 -12.1867 8.28226 1.11875e-011 -6.27086e-012 6.25742e-011 
-27.3861 91.9686 -102.191 1.31589 1.60529 5.90454 9.63379 -0.250344 -7.15256e-007 1.04562 -2.82433 9.21017 0 -40.4779 -1.71313 1.15832 3.86063 -0.0602001 0.0126047 -40.4416 -0.864524 0.128647 -0.742865 -0.00215321 -0.183287 -12.1867 8.28226 1.11875e-011 -6.27086e-012 6.25742e-011 
-27.3863 91.9689 -102.191 1.31389 1.59718 5.89318 9.63379 -0.250344 -7.15256e-007 1.0461 -2.82538 9.20648 0 -40.4779 -1.71313 1.16463 3.87713 -0.0602013 0.0126047 -40.4416 -0.864524 0.128647 -0.745723 -0.00215321 -0.183287 -12.1867 8.28226 1.11875e-011 -6.27086e-012 6.25742e-011 
-27.3859 91.9692 -102.191 1.31334 1.5866 5.88284 9.63379 -0.250344 -7.15256e-007 1.04491 -2.82433 9.20185 0 -40.4779 -1.71313 1.17115 3.89253 -0.0602024 0.0126047 -40.4416 -0.864524 0.128647 -0.747823 -0.00215321 -0.183287 -12.1867 8.28226 1.11875e-011 -6.27086e-012 6.25742e-011 
-27.3856 91.9695 -102.192 1.31247 1.57827 5.87559 9.63379 -0.250344 -7.15256e-007 1.04414 -2.82536 9.19737 0 -40.4779 -1.71313 1.1773 3.90703 -0.0602034 0.0126047 -40.4416 -0.864524 0.128647 -0.749574 -0.00215321 -0.183287 -12.1867 8.28226 1.11875e-011 -6.27086e-012 6.25742e-011 
-27.3861 91.9697 -102.191 1.30946 1.57695 5.87348 9.63379 -0.250344 -7.15256e-007 1.04589 -2.83262 9.19412 0 -40.4779 -1.71313 1.18247 3.92081 -0.0602044 0.0126047 -40.4416 -0.864524 0.128647 -0.751386 -0.00215322 -0.183287 -12.1867 8.28226 1.11875e-011 -6.27086e-012 6.25742e-011 
-27.388 91.9701 -102.19 1.30196 1.58817 5.87938 9.63379 -0.250344 -7.15256e-007 1.05246 -2.85324 9.19262 0 -40.4779 -1.71313 1.18656 3.9356 -0.0602055 0.0126047 -40.4416 -0.864524 0.128647 -0.753598 -0.00215322 -0.183287 -12.1867 8.28226 1.11875e-011 -6.27086e-012 6.25742e-011 
-27.3908 91.9705 -102.189 1.29155 1.60797 5.89141 9.63379 -0.250344 -7.15256e-007 1.06217 -2.883 9.19222 0 -40.4779 -1.71313 1.18986 3.95073 -0.0602066 0.0126047 -40.4416 -0.864524 0.128647 -0.755915 -0.00215322 -0.183287 -12.1867 8.28226 1.11875e-011 -6.27086e-012 6.25742e-011 
-27.3935 91.9707 -102.187 1.28236 1.62686 5.90457 9.63379 -0.250344 -7.15256e-007 1.07107 -2.90903 9.19224 0 -40.4779 -1.71313 1.19243 3.96281 -0.0602075 0.0126047 -40.4416 -0.864524 0.128647 -0.757793 -0.00215322 -0.183287 -12.1867 8.28226 1.11875e-011 -6.27086e-012 6.25742e-011 
-27.3953 91.9705 -102.182 1.27853 1.63534 5.91382 9.63379 -0.250344 -7.15256e-007 1.07523 -2.91849 9.192 0 -40.4779 -1.71313 1.19434 3.96847 -0.0602079 0.0126047 -40.4416 -0.864524 0.128647 -0.758685 -0.00215322 -0.183287 -12.1867 8.28226 1.11875e-011 -6.27086e-012 6.25742e-011 
-27.3955 91.9695 -102.172 1.28313 1.62653 5.91767 9.63379 -0.250344 -7.15256e-007 1.0719 -2.90154 9.19099 0 -40.4779 -1.71313 1.19576 3.9647 -0.0602076 0.0126047 -40.4416 -0.864524 0.128647 -0.758258 -0.00215322 -0.183287 -12.1867 8.28226 1.11875e-011 -6.27086e-012 6.25742e-011 
-27.3949 91.9679 -102.16 1.2933 1.60695 5.91884 9.63379 -0.250344 -7.15256e-007 1.06375 -2.86718 9.18969 0 -40.4779 -1.71313 1.1966 3.954 -0.0602068 0.0126047 -40.4416 -0.864524 0.128647 -0.756863 -0.00215322 -0.183287 -12.1867 8.28226 1.11875e-011 -6.27086e-012 6.25742e-011 
-27.394 91.9663 -102.147 1.30431 1.58719 5.91868 9.63379 -0.250344 -7.15256e-007 1.05498 -2.83077 9.18887 0 -40.4779 -1.71313 1.19654 3.94124 -0.0602059 0.0126047 -40.4416 -0.864524 0.128647 -0.754991 -0.00215322 -0.183287 -12.1867 8.28226 1.11875e-011 -6.27086e-012 6.25742e-011 
-27.3937 91.9651 -102.136 1.31144 1.57786 5.91852 9.63379 -0.250344 -7.15256e-007 1.04977 -2.80768 9.1893 0 -40.4779 -1.71313 1.19528 3.93126 -0.0602052 0.0126047 -40.4416 -0.864524 0.128647 -0.75313 -0.00215322 -0.183287 -12.1867 8.28226 1.11875e-011 -6.27086e-012 6.25742e-011 
-27.394 91.9645 -102.128 1.31276 1.58334 5.91853 9.63379 -0.250344 -7.15256e-007 1.05035 -2.80447 9.19227 0 -40.4779 -1.71313 1.19172 3.92683 -0.0602048 0.0126047 -40.4416 -0.864524 0.128647 -0.751395 -0.00215322 -0.183287 -12.1867 8.28226 1.11875e-011 -6.27086e-012 6.25742e-011 
-27.3946 91.9643 -102.12 1.31103 1.59746 5.91806 9.63379 -0.250344 -7.15256e-007 1.05413 -2.81214 9.19701 0 -40.4779 -1.71313 1.18637 3.92485 -0.0602047 0.0126047 -40.4416 -0.864524 0.128647 -0.749531 -0.00215321 -0.183287 -12.1867 8.28226 1.11875e-011 -6.27086e-012 6.25742e-011 
-27.3955 91.9641 -102.113 1.30848 1.61498 5.91721 9.63379 -0.250344 -7.15256e-007 1.05803 -2.82267 9.20119 0 -40.4779 -1.71313 1.18129 3.92146 -0.0602045 0.0126047 -40.4416 -0.864524 0.128647 -0.747468 -0.00215321 -0.183287 -12.1867 8.28226 1.11875e-011 -6.27086e-012 6.25742e-011 
-27.3964 91.9637 -102.105 1.3074 1.63068 5.91608 9.63379 -0.250344 -7.15256e-007 1.059 -2.82805 9.20252 0 -40.4779 -1.71313 1.17854 3.91274 -0.0602038 0.0126047 -40.4416 -0.864524 0.128647 -0.745138 -0.00215321 -0.183287 -12.1867 8.28226 1.11875e-011 -6.27086e-012 6.25742e-011 
-27.3978 91.963 -102.095 1.30778 1.64532 5.91516 9.63379 -0.250344 -7.15256e-007 1.05647 -2.82776 9.19992 0 -40.4779 -1.71313 1.17917 3.89648 -0.0602027 0.0126047 -40.4416 -0.864524 0.128647 -0.74252 -0.00215321 -0.183287 -12.1867 8.28226 1.11875e-011 -6.27086e-012 6.25742e-011 
-27.3996 91.9621 -102.085 1.30861 1.66096 5.91423 9.63379 -0.250344 -7.15256e-007 1.052 -2.82552 9.19479 0 -40.4779 -1.71313 1.18191 3.87516 -0.0602011 0.0126047 -40.4416 -0.864524 0.128648 -0.739652 -0.00215321 -0.183287 -12.1867 8.28226 1.11875e-011 -6.27086e-012 6.25742e-011 
-27.4009 91.9612 -102.074 1.31064 1.67434 5.91237 9.63379 -0.250344 -7.15256e-007 1.04567 -2.81975 9.18845 0 -40.4779 -1.71313 1.18536 3.85191 -0.0601995 0.0126047 -40.4416 -0.864524 0.128648 -0.736552 -0.00215321 -0.183287 -12.1867 8.28226 1.11875e-011 -6.27086e-012 6.25742e-011 
-27.4011 91.9606 -102.064 1.31461 1.68219 5.90863 9.63379 -0.250344 -7.15256e-007 1.03756 -2.80887 9.18224 0 -40.4779 -1.71313 1.1881 3.82988 -0.0601979 0.0126047 -40.4416 -0.864524 0.128648 -0.733239 -0.00215321 -0.183287 -12.1867 8.28226 1.11875e-011 -6.27086e-012 6.25742e-011 
